<?xml version="1.0" encoding="UTF-8" standalone="no"?>
<svg
   xmlns:dc="http://purl.org/dc/elements/1.1/"
   xmlns:cc="http://creativecommons.org/ns#"
   xmlns:rdf="http://www.w3.org/1999/02/22-rdf-syntax-ns#"
   xmlns:svg="http://www.w3.org/2000/svg"
   xmlns="http://www.w3.org/2000/svg"
   xmlns:sodipodi="http://sodipodi.sourceforge.net/DTD/sodipodi-0.dtd"
   xmlns:inkscape="http://www.inkscape.org/namespaces/inkscape"
   version="1.1"
   id="svg2"
   xml:space="preserve"
   width="718.19342"
   height="299.26587"
   viewBox="0 0 718.19342 299.26587"
   sodipodi:docname="LearningRateTooLarge.svg"
   inkscape:version="0.92.2pre0 (973e216, 2017-07-25)"><sodipodi:namedview
     pagecolor="#ffffff"
     bordercolor="#666666"
     borderopacity="1"
     objecttolerance="10"
     gridtolerance="10"
     guidetolerance="10"
     inkscape:pageopacity="0"
     inkscape:pageshadow="2"
     inkscape:window-width="1754"
     inkscape:window-height="1057"
     id="namedview61"
     showgrid="false"
     inkscape:zoom="1.7516173"
     inkscape:cx="359.09671"
     inkscape:cy="149.63293"
     inkscape:window-x="0"
     inkscape:window-y="621"
     inkscape:window-maximized="0"
     inkscape:current-layer="svg2" /><metadata
     id="metadata8"><rdf:RDF><cc:Work
         rdf:about=""><dc:format>image/svg+xml</dc:format><dc:type
           rdf:resource="http://purl.org/dc/dcmitype/StillImage" /><dc:title /></cc:Work></rdf:RDF></metadata><desc
     id="desc3">相同的 U 形曲线。这条曲线包含的点非常少。点的轨迹会跳过 U 形底部，然后再次跳回。</desc><defs
     id="defs6"><clipPath
       clipPathUnits="userSpaceOnUse"
       id="clipPath22"><path
         d="M 0,0 H 365760 V 205740 H 0 Z"
         id="path20" /></clipPath></defs><path
     d="M 210.64,242.20423 209.28567,-3.272572e-6"
     style="fill:#000000;fill-opacity:0;fill-rule:evenodd;stroke:none;stroke-width:0.00262467"
     id="path36"
     inkscape:connector-curvature="0" /><path
     d="M 210.58249,231.92315 209.34317,10.281076"
     style="fill:none;stroke:#595959;stroke-width:2.9999938;stroke-linecap:butt;stroke-linejoin:round;stroke-miterlimit:14.3355875;stroke-dasharray:none;stroke-opacity:1"
     id="path38"
     inkscape:connector-curvature="0" /><path
     d="m 210.58249,231.92315 -3.39254,-3.35483 3.42553,9.25027 3.32185,-9.28799 z"
     style="fill:#595959;fill-opacity:1;fill-rule:evenodd;stroke:#595959;stroke-width:2.9999938;stroke-linecap:butt;stroke-linejoin:miter;stroke-miterlimit:11.47371292;stroke-dasharray:none;stroke-opacity:1"
     id="path40"
     inkscape:connector-curvature="0" /><path
     d="m 209.34317,10.281076 3.39254,3.354827 -3.42552,-9.2502797 -3.32187,9.2879997 z"
     style="fill:#595959;fill-opacity:1;fill-rule:evenodd;stroke:#595959;stroke-width:2.9999938;stroke-linecap:butt;stroke-linejoin:miter;stroke-miterlimit:11.47371292;stroke-dasharray:none;stroke-opacity:1"
     id="path42"
     inkscape:connector-curvature="0" /><path
     d="M 226.76464,260.77375 H 583.55131"
     style="fill:#000000;fill-opacity:0;fill-rule:evenodd;stroke:none;stroke-width:0.00262467"
     id="path50"
     inkscape:connector-curvature="0" /><path
     d="m 237.04587,260.77375 h 336.2242"
     style="fill:none;stroke:#595959;stroke-width:2.9999938;stroke-linecap:butt;stroke-linejoin:round;stroke-miterlimit:14.3355875;stroke-dasharray:none;stroke-opacity:1"
     id="path52"
     inkscape:connector-curvature="0" /><path
     d="m 237.04587,260.77375 3.37374,-3.37375 -9.26929,3.37375 9.26929,3.37375 z"
     style="fill:#595959;fill-opacity:1;fill-rule:evenodd;stroke:#595959;stroke-width:2.9999938;stroke-linecap:butt;stroke-linejoin:miter;stroke-miterlimit:11.47371292;stroke-dasharray:none;stroke-opacity:1"
     id="path54"
     inkscape:connector-curvature="0" /><path
     d="m 573.27007,260.77375 -3.37375,3.37375 9.26931,-3.37375 -9.26931,-3.37375 z"
     style="fill:#595959;fill-opacity:1;fill-rule:evenodd;stroke:#595959;stroke-width:2.9999938;stroke-linecap:butt;stroke-linejoin:miter;stroke-miterlimit:11.47371292;stroke-dasharray:none;stroke-opacity:1"
     id="path56"
     inkscape:connector-curvature="0" /><path
     d="m 274.50994,265.34591 h 239.77905 v 30.20467 H 274.50994 Z"
     style="fill:#000000;fill-opacity:0;fill-rule:evenodd;stroke:none;stroke-width:0.00262467"
     id="path64"
     inkscape:connector-curvature="0" /><text
     style="font-variant:normal;font-weight:normal;font-size:18.66662788px;font-family:Arial;-inkscape-font-specification:ArialMT;writing-mode:lr-tb;fill:#000000;fill-opacity:1;fill-rule:nonzero;stroke:none;stroke-width:0.99999797"
     id="text74"
     x="347.61035"
     y="292.26584"><tspan
       x="347.61035"
       y="292.26584"
       id="tspan72"
       style="font-style:normal;font-variant:normal;font-weight:normal;font-stretch:normal;font-family:sans-serif;-inkscape-font-specification:sans-serif;stroke-width:0.99999797">权重值 (</tspan></text>
<text
     style="font-style:italic;font-variant:normal;font-weight:bold;font-size:18.66662788px;font-family:Arial;-inkscape-font-specification:Arial-BoldItalicMT;writing-mode:lr-tb;fill:#000000;fill-opacity:1;fill-rule:nonzero;stroke:none;stroke-width:0.99999797"
     id="text78"
     x="414.58069"
     y="292.26584"><tspan
       x="414.58069"
       y="292.26584"
       id="tspan76"
       style="font-style:italic;font-variant:normal;font-weight:normal;font-stretch:normal;font-size:18.66666603px;font-family:'Times New Roman';-inkscape-font-specification:'Times New Roman, Italic';font-variant-ligatures:normal;font-variant-caps:normal;font-variant-numeric:normal;font-feature-settings:normal;text-align:start;writing-mode:lr-tb;text-anchor:start;stroke-width:0.99999797">w<tspan
   style="font-size:65%;baseline-shift:sub"
   id="tspan968">i</tspan></tspan></text>
<text
     style="font-variant:normal;font-weight:normal;font-size:18.66662788px;font-family:Arial;-inkscape-font-specification:ArialMT;writing-mode:lr-tb;fill:#000000;fill-opacity:1;fill-rule:nonzero;stroke:none;stroke-width:0.99999797"
     x="435.61035"
     y="292.26584"
     id="text25"><tspan
       x="435.61035"
       y="292.26584"
       id="tspan23"
       style="font-style:normal;font-variant:normal;font-weight:normal;font-stretch:normal;font-family:sans-serif;-inkscape-font-specification:sans-serif;stroke-width:0.99999797">)</tspan></text>
<path
     d="m 145.12175,114.91053 h 60.44082 v 30.20466 h -60.44082 z"
     style="fill:#000000;fill-opacity:0;fill-rule:evenodd;stroke:none;stroke-width:0.00262467"
     id="path92"
     inkscape:connector-curvature="0" /><text
     style="font-variant:normal;font-weight:normal;font-size:18.66662788px;font-family:Arial;-inkscape-font-specification:ArialMT;writing-mode:lr-tb;fill:#000000;fill-opacity:1;fill-rule:nonzero;stroke:none;stroke-width:0.99999797"
     id="text102"
     x="158.7538"
     y="141.83047"><tspan
       x="158.7538"
       y="141.83047"
       id="tspan100"
       style="font-style:normal;font-variant:normal;font-weight:normal;font-stretch:normal;font-family:sans-serif;-inkscape-font-specification:sans-serif;stroke-width:0.99999797">损失</tspan></text>
<path
     d="m 250.64946,22.568209 c 6.86928,26.3004 13.48748,122.586881 41.21572,157.802371 27.72824,35.21545 89.29985,62.40605 125.15373,53.49044 35.85387,-8.91566 69.78095,-70.54285 89.96948,-106.98427 20.18849,-36.441396 25.96801,-93.053487 31.1616,-111.66418"
     style="fill:#000000;fill-opacity:0;fill-rule:evenodd;stroke:none;stroke-width:0.00262467"
     id="path112"
     inkscape:connector-curvature="0" /><path
     d="m 250.64946,22.568209 c 6.86928,26.3004 13.48748,122.586881 41.21572,157.802371 27.72824,35.21545 89.29985,62.40605 125.15373,53.49044 35.85387,-8.91566 69.78095,-70.54285 89.96948,-106.98427 20.18849,-36.441396 25.96801,-93.053487 31.1616,-111.66418"
     style="fill:none;stroke:#595959;stroke-width:7.99998379;stroke-linecap:butt;stroke-linejoin:round;stroke-miterlimit:14.3355875;stroke-dasharray:none;stroke-opacity:1"
     id="path114"
     inkscape:connector-curvature="0" /><path
     id="path120"
     style="fill:#fff2cc;fill-opacity:1;fill-rule:evenodd;stroke:none;stroke-width:0.00262467"
     d="m 263.89841,126.06798 v 0 c 0,-3.60941 2.92601,-6.53541 6.53543,-6.53541 v 0 c 1.7333,0 3.39561,0.68854 4.62125,1.91417 1.22561,1.22563 1.91416,2.88793 1.91416,4.62124 v 0 c 0,3.60941 -2.926,6.53543 -6.53541,6.53543 v 0 c -3.60942,0 -6.53543,-2.92602 -6.53543,-6.53543 z"
     inkscape:connector-curvature="0" /><path
     d="m 263.89841,126.06798 v 0 c 0,-3.60941 2.92601,-6.53541 6.53543,-6.53541 v 0 c 1.7333,0 3.39561,0.68854 4.62125,1.91417 1.22561,1.22563 1.91416,2.88793 1.91416,4.62124 v 0 c 0,3.60941 -2.926,6.53543 -6.53541,6.53543 v 0 c -3.60942,0 -6.53543,-2.92602 -6.53543,-6.53543 z"
     style="fill:none;stroke:#595959;stroke-width:0.99999797;stroke-linecap:butt;stroke-linejoin:round;stroke-miterlimit:14.3355875;stroke-dasharray:none;stroke-opacity:1"
     id="path122"
     inkscape:connector-curvature="0" /><path
     id="path128"
     style="fill:#fff2cc;fill-opacity:1;fill-rule:evenodd;stroke:none;stroke-width:0.00262467"
     d="m 354.81162,228.19616 v 0 c 0,-3.6094 2.926,-6.53542 6.53542,-6.53542 v 0 c 1.7333,0 3.39561,0.68854 4.62125,1.91418 1.22561,1.22564 1.91417,2.88792 1.91417,4.62124 v 0 c 0,3.6094 -2.92601,6.53542 -6.53542,6.53542 v 0 c -3.60942,0 -6.53542,-2.92602 -6.53542,-6.53542 z"
     inkscape:connector-curvature="0" /><path
     d="m 354.81162,228.19616 v 0 c 0,-3.6094 2.926,-6.53542 6.53542,-6.53542 v 0 c 1.7333,0 3.39561,0.68854 4.62125,1.91418 1.22561,1.22564 1.91417,2.88792 1.91417,4.62124 v 0 c 0,3.6094 -2.92601,6.53542 -6.53542,6.53542 v 0 c -3.60942,0 -6.53542,-2.92602 -6.53542,-6.53542 z"
     style="fill:none;stroke:#595959;stroke-width:0.99999797;stroke-linecap:butt;stroke-linejoin:round;stroke-miterlimit:14.3355875;stroke-dasharray:none;stroke-opacity:1"
     id="path130"
     inkscape:connector-curvature="0" /><path
     d="m 362.23156,125.81077 v 97.16515"
     style="fill:#000000;fill-opacity:0;fill-rule:evenodd;stroke:none;stroke-width:0.00262467"
     id="path138"
     inkscape:connector-curvature="0" /><path
     d="m 362.23156,125.81077 v 90.31099"
     style="fill:none;stroke:#1155cc;stroke-width:1.99999595;stroke-linecap:butt;stroke-linejoin:round;stroke-miterlimit:14.3355875;stroke-dasharray:none;stroke-opacity:1"
     id="path140"
     inkscape:connector-curvature="0" /><path
     d="m 362.23156,216.12176 -2.24919,-2.24917 2.24919,6.17953 2.24917,-6.17953 z"
     style="fill:#1155cc;fill-opacity:1;fill-rule:evenodd;stroke:#1155cc;stroke-width:1.99999595;stroke-linecap:butt;stroke-linejoin:miter;stroke-miterlimit:11.47371292;stroke-dasharray:none;stroke-opacity:1"
     id="path142"
     inkscape:connector-curvature="0" /><path
     d="M 454.06023,228.96646 V 212.872"
     style="fill:#000000;fill-opacity:0;fill-rule:evenodd;stroke:none;stroke-width:0.00262467"
     id="path150"
     inkscape:connector-curvature="0" /><path
     d="m 454.06023,228.96646 v -9.24031"
     style="fill:none;stroke:#1155cc;stroke-width:1.99999595;stroke-linecap:butt;stroke-linejoin:round;stroke-miterlimit:14.3355875;stroke-dasharray:none;stroke-opacity:1"
     id="path152"
     inkscape:connector-curvature="0" /><path
     d="m 454.06023,219.72615 2.24916,2.24917 -2.24916,-6.17952 -2.24917,6.17952 z"
     style="fill:#1155cc;fill-opacity:1;fill-rule:evenodd;stroke:#1155cc;stroke-width:1.99999595;stroke-linecap:butt;stroke-linejoin:miter;stroke-miterlimit:11.47371292;stroke-dasharray:none;stroke-opacity:1"
     id="path154"
     inkscape:connector-curvature="0" /><path
     id="path160"
     style="fill:#fff2cc;fill-opacity:1;fill-rule:evenodd;stroke:none;stroke-width:0.00262467"
     d="m 447.05238,208.98891 v 0 c 0,-3.60941 2.926,-6.53541 6.53541,-6.53541 v 0 c 1.73331,0 3.39562,0.68852 4.6212,1.91417 1.22564,1.22564 1.91423,2.88795 1.91423,4.62124 v 0 c 0,3.60941 -2.92604,6.53543 -6.53543,6.53543 v 0 c -3.60941,0 -6.53541,-2.92602 -6.53541,-6.53543 z"
     inkscape:connector-curvature="0" /><path
     d="m 447.05238,208.98891 v 0 c 0,-3.60941 2.926,-6.53541 6.53541,-6.53541 v 0 c 1.73331,0 3.39562,0.68852 4.6212,1.91417 1.22564,1.22564 1.91423,2.88795 1.91423,4.62124 v 0 c 0,3.60941 -2.92604,6.53543 -6.53543,6.53543 v 0 c -3.60941,0 -6.53541,-2.92602 -6.53541,-6.53543 z"
     style="fill:none;stroke:#595959;stroke-width:0.99999797;stroke-linecap:butt;stroke-linejoin:round;stroke-miterlimit:14.3355875;stroke-dasharray:none;stroke-opacity:1"
     id="path162"
     inkscape:connector-curvature="0" /><path
     id="path168"
     style="fill:#f4cccc;fill-opacity:1;fill-rule:evenodd;stroke:none;stroke-width:0.00262467"
     d="m 562.16619,195.68198 v 0 c 0,-4.40959 3.57463,-7.98424 7.98423,-7.98424 h 17.93697 v 0 h 38.88181 82.73999 c 2.11753,0 4.14837,0.84119 5.64566,2.33851 1.49738,1.49733 2.33858,3.52817 2.33858,5.64573 v 0 0 11.97634 19.96059 c 0,4.40956 -3.57472,7.98424 -7.98424,7.98424 H 626.9692 588.08739 v 0 h -17.93697 c -4.4096,0 -7.98423,-3.57468 -7.98423,-7.98424 v -19.96059 l -92.83733,1.2869 z"
     inkscape:connector-curvature="0" /><path
     d="m 562.16619,195.68198 v 0 c 0,-4.40959 3.57463,-7.98424 7.98423,-7.98424 h 17.93697 v 0 h 38.88181 82.73999 c 2.11753,0 4.14837,0.84119 5.64566,2.33851 1.49738,1.49733 2.33858,3.52817 2.33858,5.64573 v 0 0 11.97634 19.96059 c 0,4.40956 -3.57472,7.98424 -7.98424,7.98424 H 626.9692 588.08739 v 0 h -17.93697 c -4.4096,0 -7.98423,-3.57468 -7.98423,-7.98424 v -19.96059 l -92.83733,1.2869 z"
     style="fill:none;stroke:#595959;stroke-width:0.99999797;stroke-linecap:butt;stroke-linejoin:round;stroke-miterlimit:14.3355875;stroke-dasharray:none;stroke-opacity:1"
     id="path170"
     inkscape:connector-curvature="0" /><text
     style="font-variant:normal;font-weight:normal;font-size:18.66662788px;font-family:Arial;-inkscape-font-specification:ArialMT;writing-mode:lr-tb;fill:#000000;fill-opacity:1;fill-rule:nonzero;stroke:none;stroke-width:0.99999797"
     id="text180"
     x="579.34021"
     y="215.57043"><tspan
       x="579.34021"
       y="215.57043"
       id="tspan178"
       style="font-style:normal;font-variant:normal;font-weight:normal;font-stretch:normal;font-family:sans-serif;-inkscape-font-specification:sans-serif;stroke-width:0.99999797">越过了最低点！</tspan></text>
<path
     id="path192"
     style="fill:#fce5cd;fill-opacity:1;fill-rule:evenodd;stroke:none;stroke-width:0.00262467"
     d="m 0.49999895,42.296502 v 0 c 0,-7.256519 5.88256735,-13.139079 13.13908105,-13.139079 h 77.585145 v 0 h 38.881815 12.78212 c 3.48469,0 6.82668,1.38428 9.29073,3.848346 2.46406,2.464054 3.84835,5.806027 3.84835,9.290733 V 75.144195 L 256.27077,117.53009 156.02724,94.852821 v 0 c 0,7.256519 -5.88256,13.139079 -13.13908,13.139079 H 130.10604 91.224225 v 0 H 13.63908 c -7.2565137,0 -13.13908105,-5.88256 -13.13908105,-13.139079 v 0 -19.708626 0 z"
     inkscape:connector-curvature="0" /><path
     d="m 0.49999895,42.296502 v 0 c 0,-7.256519 5.88256735,-13.139079 13.13908105,-13.139079 h 77.585145 v 0 h 38.881815 12.78212 c 3.48469,0 6.82668,1.38428 9.29073,3.848346 2.46406,2.464054 3.84835,5.806027 3.84835,9.290733 V 75.144195 L 256.27077,117.53009 156.02724,94.852821 v 0 c 0,7.256519 -5.88256,13.139079 -13.13908,13.139079 H 130.10604 91.224225 v 0 H 13.63908 c -7.2565137,0 -13.13908105,-5.88256 -13.13908105,-13.139079 v 0 -19.708626 0 z"
     style="fill:none;stroke:#595959;stroke-width:0.99999797;stroke-linecap:butt;stroke-linejoin:round;stroke-miterlimit:14.3355875;stroke-dasharray:none;stroke-opacity:1"
     id="path194"
     inkscape:connector-curvature="0" /><text
     style="font-variant:normal;font-weight:normal;font-size:18.66662788px;font-family:Arial;-inkscape-font-specification:ArialMT;writing-mode:lr-tb;fill:#000000;fill-opacity:1;fill-rule:nonzero;stroke:none;stroke-width:0.99999797"
     id="text204"
     x="51.521416"
     y="75.494659"><tspan
       x="51.521416"
       y="75.494659"
       id="tspan202"
       style="font-style:normal;font-variant:normal;font-weight:normal;font-stretch:normal;font-family:sans-serif;-inkscape-font-specification:sans-serif;stroke-width:0.99999797">起点</tspan></text>
<path
     d="m 276.96925,126.06798 h 85.76361"
     style="fill:#000000;fill-opacity:0;fill-rule:evenodd;stroke:none;stroke-width:0.00262467"
     id="path214"
     inkscape:connector-curvature="0" /><path
     d="M 276.96925,126.06798 H 355.8787"
     style="fill:none;stroke:#ff0000;stroke-width:1.99999595;stroke-linecap:butt;stroke-linejoin:round;stroke-miterlimit:14.3355875;stroke-dasharray:none;stroke-opacity:1"
     id="path216"
     inkscape:connector-curvature="0" /><path
     d="m 355.8787,126.06798 -2.24918,2.24917 6.17954,-2.24917 -6.17954,-2.24916 z"
     style="fill:#ff0000;fill-opacity:1;fill-rule:evenodd;stroke:#ff0000;stroke-width:1.99999595;stroke-linecap:butt;stroke-linejoin:miter;stroke-miterlimit:11.47371292;stroke-dasharray:none;stroke-opacity:1"
     id="path218"
     inkscape:connector-curvature="0" /><path
     d="m 368.30765,229.01528 h 85.76361"
     style="fill:#000000;fill-opacity:0;fill-rule:evenodd;stroke:none;stroke-width:0.00262467"
     id="path226"
     inkscape:connector-curvature="0" /><path
     d="M 368.30765,229.01528 H 447.2171"
     style="fill:none;stroke:#ff0000;stroke-width:1.99999595;stroke-linecap:butt;stroke-linejoin:round;stroke-miterlimit:14.3355875;stroke-dasharray:none;stroke-opacity:1"
     id="path228"
     inkscape:connector-curvature="0" /><path
     d="m 447.2171,229.01528 -2.24919,2.24915 6.17955,-2.24915 -6.17955,-2.24916 z"
     style="fill:#ff0000;fill-opacity:1;fill-rule:evenodd;stroke:#ff0000;stroke-width:1.99999595;stroke-linecap:butt;stroke-linejoin:miter;stroke-miterlimit:11.47371292;stroke-dasharray:none;stroke-opacity:1"
     id="path230"
     inkscape:connector-curvature="0" /></svg>