<?xml version="1.0" encoding="UTF-8" standalone="no"?>
<svg
   xmlns:dc="http://purl.org/dc/elements/1.1/"
   xmlns:cc="http://creativecommons.org/ns#"
   xmlns:rdf="http://www.w3.org/1999/02/22-rdf-syntax-ns#"
   xmlns:svg="http://www.w3.org/2000/svg"
   xmlns="http://www.w3.org/2000/svg"
   xmlns:sodipodi="http://sodipodi.sourceforge.net/DTD/sodipodi-0.dtd"
   xmlns:inkscape="http://www.inkscape.org/namespaces/inkscape"
   version="1.1"
   id="svg2"
   xml:space="preserve"
   width="582.48834"
   height="299.26587"
   viewBox="0 0 582.48834 299.26587"
   sodipodi:docname="LearningRateJustRight.svg"
   inkscape:version="0.92.2pre0 (973e216, 2017-07-25)"><sodipodi:namedview
     pagecolor="#ffffff"
     bordercolor="#666666"
     borderopacity="1"
     objecttolerance="10"
     gridtolerance="10"
     guidetolerance="10"
     inkscape:pageopacity="0"
     inkscape:pageshadow="2"
     inkscape:window-width="1959"
     inkscape:window-height="1057"
     id="namedview73"
     showgrid="false"
     inkscape:zoom="2.5116382"
     inkscape:cx="291.24417"
     inkscape:cy="149.63293"
     inkscape:window-x="0"
     inkscape:window-y="621"
     inkscape:window-maximized="0"
     inkscape:current-layer="svg2" /><metadata
     id="metadata8"><rdf:RDF><cc:Work
         rdf:about=""><dc:format>image/svg+xml</dc:format><dc:type
           rdf:resource="http://purl.org/dc/dcmitype/StillImage" /><dc:title /></cc:Work></rdf:RDF></metadata><desc
     id="desc3">相同的 U 形曲线。点的轨迹大约需要 8 步达到最低点。</desc><defs
     id="defs6"><clipPath
       clipPathUnits="userSpaceOnUse"
       id="clipPath22"><path
         d="M 0,0 H 365760 V 205740 H 0 Z"
         id="path20" /></clipPath></defs><path
     inkscape:connector-curvature="0"
     d="M 209.577,242.20423 208.22268,-3.272572e-6"
     style="fill:#000000;fill-opacity:0;fill-rule:evenodd;stroke:none;stroke-width:0.00262467"
     id="path36" /><path
     inkscape:connector-curvature="0"
     d="M 209.51949,231.92315 208.28019,10.281076"
     style="fill:none;stroke:#595959;stroke-width:2.9999938;stroke-linecap:butt;stroke-linejoin:round;stroke-miterlimit:14.3355875;stroke-dasharray:none;stroke-opacity:1"
     id="path38" /><path
     inkscape:connector-curvature="0"
     d="m 209.51949,231.92315 -3.39253,-3.35483 3.42553,9.25027 3.32186,-9.28799 z"
     style="fill:#595959;fill-opacity:1;fill-rule:evenodd;stroke:#595959;stroke-width:2.9999938;stroke-linecap:butt;stroke-linejoin:miter;stroke-miterlimit:11.47371292;stroke-dasharray:none;stroke-opacity:1"
     id="path40" /><path
     inkscape:connector-curvature="0"
     d="m 208.28019,10.281076 3.39253,3.354827 -3.42553,-9.2502797 -3.32186,9.2879997 z"
     style="fill:#595959;fill-opacity:1;fill-rule:evenodd;stroke:#595959;stroke-width:2.9999938;stroke-linecap:butt;stroke-linejoin:miter;stroke-miterlimit:11.47371292;stroke-dasharray:none;stroke-opacity:1"
     id="path42" /><path
     inkscape:connector-curvature="0"
     d="m 249.58648,22.568209 c 6.86928,26.3004 13.48748,122.586881 41.21572,157.802371 27.72823,35.21545 89.29984,62.40605 125.15373,53.49044 35.85387,-8.91566 69.78093,-70.54285 89.96948,-106.98427 20.18849,-36.441396 25.968,-93.053487 31.16158,-111.66418"
     style="fill:#000000;fill-opacity:0;fill-rule:evenodd;stroke:none;stroke-width:0.00262467"
     id="path50" /><path
     inkscape:connector-curvature="0"
     d="m 249.58648,22.568209 c 6.86928,26.3004 13.48748,122.586881 41.21572,157.802371 27.72823,35.21545 89.29984,62.40605 125.15373,53.49044 35.85387,-8.91566 69.78093,-70.54285 89.96948,-106.98427 20.18849,-36.441396 25.968,-93.053487 31.16158,-111.66418"
     style="fill:none;stroke:#595959;stroke-width:7.99998379;stroke-linecap:butt;stroke-linejoin:round;stroke-miterlimit:14.3355875;stroke-dasharray:none;stroke-opacity:1"
     id="path52" /><path
     inkscape:connector-curvature="0"
     id="path58"
     style="fill:#fff2cc;fill-opacity:1;fill-rule:evenodd;stroke:none;stroke-width:0.00262467"
     d="m 262.83543,134.06797 v 0 c 0,-3.60942 2.926,-6.53543 6.53541,-6.53543 v 0 c 1.73331,0 3.39561,0.68856 4.62125,1.91419 1.22562,1.22562 1.91418,2.88793 1.91418,4.62124 v 0 c 0,3.60941 -2.926,6.53541 -6.53543,6.53541 v 0 c -3.60941,0 -6.53541,-2.926 -6.53541,-6.53541 z" /><path
     inkscape:connector-curvature="0"
     d="m 262.83543,134.06797 v 0 c 0,-3.60942 2.926,-6.53543 6.53541,-6.53543 v 0 c 1.73331,0 3.39561,0.68856 4.62125,1.91419 1.22562,1.22562 1.91418,2.88793 1.91418,4.62124 v 0 c 0,3.60941 -2.926,6.53541 -6.53543,6.53541 v 0 c -3.60941,0 -6.53541,-2.926 -6.53541,-6.53541 z"
     style="fill:none;stroke:#595959;stroke-width:0.99999797;stroke-linecap:butt;stroke-linejoin:round;stroke-miterlimit:14.3355875;stroke-dasharray:none;stroke-opacity:1"
     id="path60" /><path
     inkscape:connector-curvature="0"
     id="path66"
     style="fill:#fce5cd;fill-opacity:1;fill-rule:evenodd;stroke:none;stroke-width:0.00262467"
     d="m 0.49999899,40.385742 v 0 c 0,-7.256519 5.88256681,-13.139079 13.13908201,-13.139079 h 77.585144 v 0 h 38.881805 12.78213 c 3.4847,0 6.82668,1.384293 9.29074,3.848346 2.46405,2.464054 3.84834,5.806027 3.84834,9.290733 V 73.233448 L 259.89767,130.04446 156.02724,92.942061 v 0 c 0,7.256519 -5.88256,13.139079 -13.13908,13.139079 H 130.10603 91.224225 v 0 H 13.639081 c -7.2565152,0 -13.13908201,-5.88256 -13.13908201,-13.139079 v 0 -19.708613 0 z" /><path
     inkscape:connector-curvature="0"
     d="m 0.49999899,40.385742 v 0 c 0,-7.256519 5.88256681,-13.139079 13.13908201,-13.139079 h 77.585144 v 0 h 38.881805 12.78213 c 3.4847,0 6.82668,1.384293 9.29074,3.848346 2.46405,2.464054 3.84834,5.806027 3.84834,9.290733 V 73.233448 L 259.89767,130.04446 156.02724,92.942061 v 0 c 0,7.256519 -5.88256,13.139079 -13.13908,13.139079 H 130.10603 91.224225 v 0 H 13.639081 c -7.2565152,0 -13.13908201,-5.88256 -13.13908201,-13.139079 v 0 -19.708613 0 z"
     style="fill:none;stroke:#595959;stroke-width:0.99999797;stroke-linecap:butt;stroke-linejoin:round;stroke-miterlimit:14.3355875;stroke-dasharray:none;stroke-opacity:1"
     id="path68" /><text
     y="73.583893"
     x="24.854748"
     style="font-variant:normal;font-weight:normal;font-size:18.66662788px;font-family:Arial;-inkscape-font-specification:ArialMT;writing-mode:lr-tb;fill:#000000;fill-opacity:1;fill-rule:nonzero;stroke:none;stroke-width:0.99999797"
     id="text78"><tspan
       style="font-style:normal;font-variant:normal;font-weight:normal;font-stretch:normal;font-family:sans-serif;-inkscape-font-specification:sans-serif;stroke-width:0.99999797"
       x="51.521416"
       y="73.583893"
       id="tspan76">起点</tspan></text>
<path
     inkscape:connector-curvature="0"
     d="m 275.90627,134.06797 h 14.89761"
     style="fill:#000000;fill-opacity:0;fill-rule:evenodd;stroke:none;stroke-width:0.00262467"
     id="path88" /><path
     inkscape:connector-curvature="0"
     d="m 275.90627,134.06797 h 8.89761"
     style="fill:none;stroke:#ff0000;stroke-width:0.99999797;stroke-linecap:butt;stroke-linejoin:round;stroke-miterlimit:14.3355875;stroke-dasharray:none;stroke-opacity:1"
     id="path90" /><path
     inkscape:connector-curvature="0"
     d="m 284.80388,135.7197 4.53811,-1.65173 -4.53811,-1.65174 z"
     style="fill:#ff0000;fill-opacity:1;fill-rule:evenodd;stroke:#ff0000;stroke-width:0.99999797;stroke-linecap:butt;stroke-linejoin:miter;stroke-miterlimit:11.47371292;stroke-dasharray:none;stroke-opacity:1"
     id="path92" /><path
     inkscape:connector-curvature="0"
     id="path98"
     style="fill:#fff2cc;fill-opacity:1;fill-rule:evenodd;stroke:none;stroke-width:0.00262467"
     d="m 284.27633,181.92877 v 0 c 0,-3.60943 2.926,-6.53543 6.53542,-6.53543 v 0 c 1.7333,0 3.39561,0.68855 4.62125,1.91419 1.22561,1.22562 1.91417,2.88793 1.91417,4.62124 v 0 c 0,3.60941 -2.92601,6.53541 -6.53542,6.53541 v 0 c -3.60942,0 -6.53542,-2.926 -6.53542,-6.53541 z" /><path
     inkscape:connector-curvature="0"
     d="m 284.27633,181.92877 v 0 c 0,-3.60943 2.926,-6.53543 6.53542,-6.53543 v 0 c 1.7333,0 3.39561,0.68855 4.62125,1.91419 1.22561,1.22562 1.91417,2.88793 1.91417,4.62124 v 0 c 0,3.60941 -2.92601,6.53541 -6.53542,6.53541 v 0 c -3.60942,0 -6.53542,-2.926 -6.53542,-6.53541 z"
     style="fill:none;stroke:#595959;stroke-width:0.99999797;stroke-linecap:butt;stroke-linejoin:round;stroke-miterlimit:14.3355875;stroke-dasharray:none;stroke-opacity:1"
     id="path100" /><path
     inkscape:connector-curvature="0"
     d="m 297.34717,181.92877 h 14.8976"
     style="fill:#000000;fill-opacity:0;fill-rule:evenodd;stroke:none;stroke-width:0.00262467"
     id="path108" /><path
     inkscape:connector-curvature="0"
     d="m 297.34717,181.92877 h 8.89762"
     style="fill:none;stroke:#ff0000;stroke-width:0.99999797;stroke-linecap:butt;stroke-linejoin:round;stroke-miterlimit:14.3355875;stroke-dasharray:none;stroke-opacity:1"
     id="path110" /><path
     inkscape:connector-curvature="0"
     d="m 306.24479,183.58049 4.5381,-1.65172 -4.5381,-1.65174 z"
     style="fill:#ff0000;fill-opacity:1;fill-rule:evenodd;stroke:#ff0000;stroke-width:0.99999797;stroke-linecap:butt;stroke-linejoin:miter;stroke-miterlimit:11.47371292;stroke-dasharray:none;stroke-opacity:1"
     id="path112" /><path
     inkscape:connector-curvature="0"
     id="path118"
     style="fill:#fff2cc;fill-opacity:1;fill-rule:evenodd;stroke:none;stroke-width:0.00262467"
     d="m 305.70936,203.43266 v 0 c 0,-3.60941 2.926,-6.53543 6.53541,-6.53543 v 0 c 1.73331,0 3.39562,0.68855 4.62126,1.91419 1.22561,1.22563 1.91417,2.88793 1.91417,4.62124 v 0 c 0,3.60941 -2.92601,6.53541 -6.53543,6.53541 v 0 c -3.60941,0 -6.53541,-2.926 -6.53541,-6.53541 z" /><path
     inkscape:connector-curvature="0"
     d="m 305.70936,203.43266 v 0 c 0,-3.60941 2.926,-6.53543 6.53541,-6.53543 v 0 c 1.73331,0 3.39562,0.68855 4.62126,1.91419 1.22561,1.22563 1.91417,2.88793 1.91417,4.62124 v 0 c 0,3.60941 -2.92601,6.53541 -6.53543,6.53541 v 0 c -3.60941,0 -6.53541,-2.926 -6.53541,-6.53541 z"
     style="fill:none;stroke:#595959;stroke-width:0.99999797;stroke-linecap:butt;stroke-linejoin:round;stroke-miterlimit:14.3355875;stroke-dasharray:none;stroke-opacity:1"
     id="path120" /><path
     inkscape:connector-curvature="0"
     d="m 318.7802,203.43266 h 14.8976"
     style="fill:#000000;fill-opacity:0;fill-rule:evenodd;stroke:none;stroke-width:0.00262467"
     id="path128" /><path
     inkscape:connector-curvature="0"
     d="m 318.7802,203.43266 h 8.89761"
     style="fill:none;stroke:#ff0000;stroke-width:0.99999797;stroke-linecap:butt;stroke-linejoin:round;stroke-miterlimit:14.3355875;stroke-dasharray:none;stroke-opacity:1"
     id="path130" /><path
     inkscape:connector-curvature="0"
     d="m 327.67781,205.08438 4.53811,-1.65172 -4.53811,-1.65173 z"
     style="fill:#ff0000;fill-opacity:1;fill-rule:evenodd;stroke:#ff0000;stroke-width:0.99999797;stroke-linecap:butt;stroke-linejoin:miter;stroke-miterlimit:11.47371292;stroke-dasharray:none;stroke-opacity:1"
     id="path132" /><path
     inkscape:connector-curvature="0"
     id="path138"
     style="fill:#fff2cc;fill-opacity:1;fill-rule:evenodd;stroke:none;stroke-width:0.00262467"
     d="m 326.00065,216.5035 v 0 c 0,-3.60942 2.926,-6.53543 6.53543,-6.53543 v 0 c 1.73329,0 3.3956,0.68855 4.62124,1.91419 1.22561,1.22562 1.91417,2.88793 1.91417,4.62124 v 0 c 0,3.60941 -2.926,6.53541 -6.53541,6.53541 v 0 c -3.60943,0 -6.53543,-2.926 -6.53543,-6.53541 z" /><path
     inkscape:connector-curvature="0"
     d="m 326.00065,216.5035 v 0 c 0,-3.60942 2.926,-6.53543 6.53543,-6.53543 v 0 c 1.73329,0 3.3956,0.68855 4.62124,1.91419 1.22561,1.22562 1.91417,2.88793 1.91417,4.62124 v 0 c 0,3.60941 -2.926,6.53541 -6.53541,6.53541 v 0 c -3.60943,0 -6.53543,-2.926 -6.53543,-6.53541 z"
     style="fill:none;stroke:#595959;stroke-width:0.99999797;stroke-linecap:butt;stroke-linejoin:round;stroke-miterlimit:14.3355875;stroke-dasharray:none;stroke-opacity:1"
     id="path140" /><path
     inkscape:connector-curvature="0"
     d="M 339.07149,216.5035 H 353.9691"
     style="fill:#000000;fill-opacity:0;fill-rule:evenodd;stroke:none;stroke-width:0.00262467"
     id="path148" /><path
     inkscape:connector-curvature="0"
     d="m 339.07149,216.5035 h 8.89763"
     style="fill:none;stroke:#ff0000;stroke-width:0.99999797;stroke-linecap:butt;stroke-linejoin:round;stroke-miterlimit:14.3355875;stroke-dasharray:none;stroke-opacity:1"
     id="path150" /><path
     inkscape:connector-curvature="0"
     d="m 347.96912,218.15522 4.53809,-1.65172 -4.53809,-1.65174 z"
     style="fill:#ff0000;fill-opacity:1;fill-rule:evenodd;stroke:#ff0000;stroke-width:0.99999797;stroke-linecap:butt;stroke-linejoin:miter;stroke-miterlimit:11.47371292;stroke-dasharray:none;stroke-opacity:1"
     id="path152" /><path
     inkscape:connector-curvature="0"
     d="m 290.81175,134.07059 v 41.32275"
     style="fill:#000000;fill-opacity:0;fill-rule:evenodd;stroke:none;stroke-width:0.00262467"
     id="path160" /><path
     inkscape:connector-curvature="0"
     d="m 290.81175,134.07059 v 37.89567"
     style="fill:none;stroke:#1155cc;stroke-width:0.99999797;stroke-linecap:butt;stroke-linejoin:round;stroke-miterlimit:14.3355875;stroke-dasharray:none;stroke-opacity:1"
     id="path162" /><path
     inkscape:connector-curvature="0"
     d="m 290.81175,171.96626 -1.12459,-1.12459 1.12459,3.08978 1.12458,-3.08978 z"
     style="fill:#1155cc;fill-opacity:1;fill-rule:evenodd;stroke:#1155cc;stroke-width:0.99999797;stroke-linecap:butt;stroke-linejoin:miter;stroke-miterlimit:11.47371292;stroke-dasharray:none;stroke-opacity:1"
     id="path164" /><path
     inkscape:connector-curvature="0"
     d="m 313.06367,182.06262 -0.8189,14.83461"
     style="fill:#000000;fill-opacity:0;fill-rule:evenodd;stroke:none;stroke-width:0.00262467"
     id="path172" /><path
     inkscape:connector-curvature="0"
     d="m 313.06367,182.06262 -0.63,11.41275"
     style="fill:none;stroke:#1155cc;stroke-width:0.99999797;stroke-linecap:butt;stroke-linejoin:round;stroke-miterlimit:14.3355875;stroke-dasharray:none;stroke-opacity:1"
     id="path174" /><path
     inkscape:connector-curvature="0"
     d="m 312.43367,193.47537 -1.06088,-1.18486 0.95256,3.14704 1.29317,-3.02309 z"
     style="fill:#1155cc;fill-opacity:1;fill-rule:evenodd;stroke:#1155cc;stroke-width:0.99999797;stroke-linecap:butt;stroke-linejoin:miter;stroke-miterlimit:11.47371292;stroke-dasharray:none;stroke-opacity:1"
     id="path176" /><path
     inkscape:connector-curvature="0"
     d="m 332.94552,203.4484 -0.40944,6.51967"
     style="fill:#000000;fill-opacity:0;fill-rule:evenodd;stroke:none;stroke-width:0.00262467"
     id="path184" /><path
     inkscape:connector-curvature="0"
     d="m 332.94552,203.4484 -0.19464,3.09931"
     style="fill:none;stroke:#1155cc;stroke-width:0.99999797;stroke-linecap:butt;stroke-linejoin:round;stroke-miterlimit:14.3355875;stroke-dasharray:none;stroke-opacity:1"
     id="path186" /><path
     inkscape:connector-curvature="0"
     d="m 332.75088,206.54771 -1.0519,-1.19283 0.92872,3.15416 1.31603,-3.01318 z"
     style="fill:#1155cc;fill-opacity:1;fill-rule:evenodd;stroke:#1155cc;stroke-width:0.99999797;stroke-linecap:butt;stroke-linejoin:miter;stroke-miterlimit:11.47371292;stroke-dasharray:none;stroke-opacity:1"
     id="path188" /><path
     inkscape:connector-curvature="0"
     d="M 225.70164,260.77375 H 582.48833"
     style="fill:#000000;fill-opacity:0;fill-rule:evenodd;stroke:none;stroke-width:0.00262467"
     id="path196" /><path
     inkscape:connector-curvature="0"
     d="M 235.98288,260.77375 H 572.20709"
     style="fill:none;stroke:#595959;stroke-width:2.9999938;stroke-linecap:butt;stroke-linejoin:round;stroke-miterlimit:14.3355875;stroke-dasharray:none;stroke-opacity:1"
     id="path198" /><path
     inkscape:connector-curvature="0"
     d="m 235.98288,260.77375 3.37375,-3.37375 -9.2693,3.37375 9.2693,3.37375 z"
     style="fill:#595959;fill-opacity:1;fill-rule:evenodd;stroke:#595959;stroke-width:2.9999938;stroke-linecap:butt;stroke-linejoin:miter;stroke-miterlimit:11.47371292;stroke-dasharray:none;stroke-opacity:1"
     id="path200" /><path
     inkscape:connector-curvature="0"
     d="m 572.20709,260.77375 -3.37375,3.37375 9.26929,-3.37375 -9.26929,-3.37375 z"
     style="fill:#595959;fill-opacity:1;fill-rule:evenodd;stroke:#595959;stroke-width:2.9999938;stroke-linecap:butt;stroke-linejoin:miter;stroke-miterlimit:11.47371292;stroke-dasharray:none;stroke-opacity:1"
     id="path202" /><path
     inkscape:connector-curvature="0"
     d="m 273.44696,265.34591 h 239.77903 v 30.20467 H 273.44696 Z"
     style="fill:#000000;fill-opacity:0;fill-rule:evenodd;stroke:none;stroke-width:0.00262467"
     id="path210" /><text
     y="292.26584"
     x="319.88071"
     style="font-variant:normal;font-weight:normal;font-size:18.66662788px;font-family:Arial;-inkscape-font-specification:ArialMT;writing-mode:lr-tb;fill:#000000;fill-opacity:1;fill-rule:nonzero;stroke:none;stroke-width:0.99999797"
     id="text220"><tspan
       style="font-style:normal;font-variant:normal;font-weight:normal;font-stretch:normal;font-family:sans-serif;-inkscape-font-specification:sans-serif;stroke-width:0.99999797"
       x="333.21402"
       y="292.26584"
       id="tspan218">权重值 (</tspan></text>
<text
     y="292.26584"
     x="404.18433"
     style="font-style:italic;font-variant:normal;font-weight:bold;font-size:18.66662788px;font-family:Arial;-inkscape-font-specification:Arial-BoldItalicMT;writing-mode:lr-tb;fill:#000000;fill-opacity:1;fill-rule:nonzero;stroke:none;stroke-width:0.99999797"
     id="text224"><tspan
       style="font-style:italic;font-variant:normal;font-weight:normal;font-stretch:normal;font-size:18.66666603px;font-family:'Times New Roman';-inkscape-font-specification:'Times New Roman, Italic';font-variant-ligatures:normal;font-variant-caps:normal;font-variant-numeric:normal;font-feature-settings:normal;text-align:start;writing-mode:lr-tb;text-anchor:start;stroke-width:0.99999797"
       x="404.18433"
       y="292.26584"
       id="tspan222">w<tspan
   style="font-size:65%;baseline-shift:sub"
   id="tspan944">i</tspan></tspan></text>
<text
     y="292.26584"
     x="426.54736"
     style="font-variant:normal;font-weight:normal;font-size:18.66662788px;font-family:Arial;-inkscape-font-specification:ArialMT;writing-mode:lr-tb;fill:#000000;fill-opacity:1;fill-rule:nonzero;stroke:none;stroke-width:0.99999797"
     id="text60"><tspan
       style="font-style:normal;font-variant:normal;font-weight:normal;font-stretch:normal;font-family:sans-serif;-inkscape-font-specification:sans-serif;stroke-width:0.99999797"
       x="426.54736"
       y="292.26584"
       id="tspan58">)</tspan></text>
<path
     inkscape:connector-curvature="0"
     d="m 144.05876,114.91053 h 60.44083 v 30.20466 h -60.44083 z"
     style="fill:#000000;fill-opacity:0;fill-rule:evenodd;stroke:none;stroke-width:0.00262467"
     id="path238" /><text
     y="141.83047"
     x="157.69081"
     style="font-variant:normal;font-weight:normal;font-size:18.66662788px;font-family:Arial;-inkscape-font-specification:ArialMT;writing-mode:lr-tb;fill:#000000;fill-opacity:1;fill-rule:nonzero;stroke:none;stroke-width:0.99999797"
     id="text248"><tspan
       style="font-style:normal;font-variant:normal;font-weight:normal;font-stretch:normal;font-family:sans-serif;-inkscape-font-specification:sans-serif;stroke-width:0.99999797"
       x="157.69081"
       y="141.83047"
       id="tspan246">损失</tspan></text>
<path
     inkscape:connector-curvature="0"
     id="path256"
     style="fill:#d9ead3;fill-opacity:1;fill-rule:evenodd;stroke:none;stroke-width:0.00262467"
     d="m 312.24477,80.472275 v 0 c 0,-5.563427 4.51004,-10.073467 10.07348,-10.073467 h 19.33329 v 0 h 44.11015 92.8502 c 2.67165,0 5.23388,1.061307 7.12304,2.950454 1.88912,1.889133 2.95044,4.451359 2.95044,7.123013 v 25.183675 0 15.1102 0 c 0,5.56343 -4.51006,10.07347 -10.07348,10.07347 h -92.8502 l 9.01848,101.47773 -53.12863,-101.47773 h -19.33329 c -5.56344,0 -10.07348,-4.51004 -10.07348,-10.07347 v 0 -15.1102 0 z" /><path
     inkscape:connector-curvature="0"
     d="m 312.24477,80.472275 v 0 c 0,-5.563427 4.51004,-10.073467 10.07348,-10.073467 h 19.33329 v 0 h 44.11015 92.8502 c 2.67165,0 5.23388,1.061307 7.12304,2.950454 1.88912,1.889133 2.95044,4.451359 2.95044,7.123013 v 25.183675 0 15.1102 0 c 0,5.56343 -4.51006,10.07347 -10.07348,10.07347 h -92.8502 l 9.01848,101.47773 -53.12863,-101.47773 h -19.33329 c -5.56344,0 -10.07348,-4.51004 -10.07348,-10.07347 v 0 -15.1102 0 z"
     style="fill:none;stroke:#595959;stroke-width:0.99999797;stroke-linecap:butt;stroke-linejoin:round;stroke-miterlimit:14.3355875;stroke-dasharray:none;stroke-opacity:1"
     id="path258" /><text
     y="96.539215"
     x="344.84351"
     style="font-variant:normal;font-weight:normal;font-size:18.66662788px;font-family:Arial;-inkscape-font-specification:ArialMT;writing-mode:lr-tb;fill:#000000;fill-opacity:1;fill-rule:nonzero;stroke:none;stroke-width:0.99999797"
     id="text268"><tspan
       style="font-style:normal;font-variant:normal;font-weight:normal;font-stretch:normal;font-family:sans-serif;-inkscape-font-specification:sans-serif;stroke-width:0.99999797"
       x="344.84351"
       y="96.539215"
       id="tspan266">我们将高效地</tspan></text>
<text
     y="118.53917"
     x="353.65625"
     style="font-variant:normal;font-weight:normal;font-size:18.66662788px;font-family:Arial;-inkscape-font-specification:ArialMT;writing-mode:lr-tb;fill:#000000;fill-opacity:1;fill-rule:nonzero;stroke:none;stroke-width:0.99999797"
     id="text272"><tspan
       style="font-style:normal;font-variant:normal;font-weight:normal;font-stretch:normal;font-family:sans-serif;-inkscape-font-specification:sans-serif;stroke-width:0.99999797"
       x="353.65625"
       y="118.53917"
       id="tspan270">到达最低点。</tspan></text>
</svg>