<?xml version="1.0" encoding="utf-8"?>
<!-- Generator: Adobe Illustrator 19.1.0, SVG Export Plug-In . SVG Version: 6.00 Build 0)  -->
<svg version="1.1" id="Layer_1" xmlns="http://www.w3.org/2000/svg" xmlns:xlink="http://www.w3.org/1999/xlink" x="0px" y="0px"
	 viewBox="-141 279.4 328 235.6" style="enable-background:new -141 279.4 328 235.6;" xml:space="preserve">
<desc>一个深度神经网络，具有一个输入层、两个普通的隐藏层，然后是 Softmax 层，最后是一个输出层（与 Softmax 层拥有一样的节点数）。</desc>
<style type="text/css">
	.zhsml-st0{fill:#B4A7D6;}
	.zhsml-st1{fill:#FFE599;}
	.zhsml-st2{fill:#FFFFFF;}
	.zhsml-st3{fill:none;stroke:#424242;stroke-width:0.75;stroke-linejoin:round;stroke-miterlimit:14.3356;}
	.zhsml-st4{fill:none;}
	.zhsml-st5{fill:none;stroke:#000000;stroke-width:0.75;stroke-linejoin:round;stroke-miterlimit:14.3356;}
	.zhsml-st6{fill:#666666;}
	.zhsml-st7{font-family:'PingFangTC-Medium-B5pc-H';}
	.zhsml-st8{font-size:12px;}
	.zhsml-st9{fill:none;stroke:#424242;stroke-width:0.75;stroke-linejoin:round;stroke-miterlimit:14.3356;stroke-dasharray:0.75,2.25;}
	.zhsml-st10{fill:#424242;}
	.zhsml-st11{fill:none;stroke:#424242;stroke-width:0.75;stroke-miterlimit:11.4737;}
	.zhsml-st12{font-family:'Roboto-Bold';}
</style>
<path class="zhsml-st0" d="M59.2,331.9L59.2,331.9c0-3.3,2.7-6,6-6h24c1.6,0,3.1,0.6,4.2,1.8c1.1,1.1,1.8,2.6,1.8,4.2v144.5
	c0,3.3-2.7,6-6,6h-24c-3.3,0-6-2.7-6-6V331.9z"/>
<path class="zhsml-st1" d="M-97,311.6L-97,311.6c0-3.3,2.7-6,6-6h24c1.6,0,3.1,0.6,4.2,1.8c1.1,1.1,1.8,2.6,1.8,4.2V498c0,3.3-2.7,6-6,6
	h-24c-3.3,0-6-2.7-6-6V311.6z"/>
<path class="zhsml-st1" d="M-18.8,331.9L-18.8,331.9c0-3.3,2.7-6,6-6h24c1.6,0,3.1,0.6,4.2,1.8c1.1,1.1,1.8,2.6,1.8,4.2v144.5
	c0,3.3-2.7,6-6,6h-24c-3.3,0-6-2.7-6-6V331.9z"/>
<path class="zhsml-st2" d="M-11.3,346.2L-11.3,346.2c0-5.4,4.7-9.8,10.5-9.8s10.5,4.4,10.5,9.8c0,5.4-4.7,9.8-10.5,9.8
	C-6.6,355.9-11.3,351.6-11.3,346.2z"/>
<path class="zhsml-st3" d="M-11.3,346.2L-11.3,346.2c0-5.4,4.7-9.8,10.5-9.8s10.5,4.4,10.5,9.8c0,5.4-4.7,9.8-10.5,9.8
	C-6.6,355.9-11.3,351.6-11.3,346.2z"/>
<path class="zhsml-st2" d="M-11.4,374.3L-11.4,374.3c0-5.4,4.7-9.8,10.5-9.8s10.5,4.4,10.5,9.8c0,5.4-4.7,9.8-10.5,9.8
	C-6.7,384.1-11.4,379.7-11.4,374.3z"/>
<path class="zhsml-st3" d="M-11.4,374.3L-11.4,374.3c0-5.4,4.7-9.8,10.5-9.8s10.5,4.4,10.5,9.8c0,5.4-4.7,9.8-10.5,9.8
	C-6.7,384.1-11.4,379.7-11.4,374.3z"/>
<path class="zhsml-st2" d="M-11.4,402.5L-11.4,402.5c0-5.4,4.7-9.8,10.5-9.8s10.5,4.4,10.5,9.8c0,5.4-4.7,9.8-10.5,9.8
	S-11.4,407.9-11.4,402.5z"/>
<path class="zhsml-st3" d="M-11.4,402.5L-11.4,402.5c0-5.4,4.7-9.8,10.5-9.8s10.5,4.4,10.5,9.8c0,5.4-4.7,9.8-10.5,9.8
	S-11.4,407.9-11.4,402.5z"/>
<path class="zhsml-st2" d="M-11.4,430.7L-11.4,430.7c0-5.4,4.7-9.8,10.5-9.8s10.5,4.4,10.5,9.8c0,5.4-4.7,9.8-10.5,9.8
	S-11.4,436.1-11.4,430.7z"/>
<path class="zhsml-st3" d="M-11.4,430.7L-11.4,430.7c0-5.4,4.7-9.8,10.5-9.8s10.5,4.4,10.5,9.8c0,5.4-4.7,9.8-10.5,9.8
	S-11.4,436.1-11.4,430.7z"/>
<path class="zhsml-st2" d="M-11.4,458.9L-11.4,458.9c0-5.4,4.7-9.8,10.5-9.8s10.5,4.4,10.5,9.8s-4.7,9.8-10.5,9.8S-11.4,464.3-11.4,458.9z
	"/>
<path class="zhsml-st3" d="M-11.4,458.9L-11.4,458.9c0-5.4,4.7-9.8,10.5-9.8s10.5,4.4,10.5,9.8s-4.7,9.8-10.5,9.8S-11.4,464.3-11.4,458.9z
	"/>
<path class="zhsml-st2" d="M66.8,346.2L66.8,346.2c0-5.4,4.7-9.8,10.5-9.8s10.5,4.4,10.5,9.8c0,5.4-4.7,9.8-10.5,9.8
	C71.5,355.9,66.8,351.6,66.8,346.2z"/>
<path class="zhsml-st3" d="M66.8,346.2L66.8,346.2c0-5.4,4.7-9.8,10.5-9.8s10.5,4.4,10.5,9.8c0,5.4-4.7,9.8-10.5,9.8
	C71.5,355.9,66.8,351.6,66.8,346.2z"/>
<path class="zhsml-st2" d="M66.8,374.3L66.8,374.3c0-5.4,4.7-9.8,10.5-9.8s10.5,4.4,10.5,9.8c0,5.4-4.7,9.8-10.5,9.8
	C71.5,384.1,66.8,379.7,66.8,374.3z"/>
<path class="zhsml-st3" d="M66.8,374.3L66.8,374.3c0-5.4,4.7-9.8,10.5-9.8s10.5,4.4,10.5,9.8c0,5.4-4.7,9.8-10.5,9.8
	C71.5,384.1,66.8,379.7,66.8,374.3z"/>
<path class="zhsml-st2" d="M66.8,402.5L66.8,402.5c0-5.4,4.7-9.8,10.5-9.8s10.5,4.4,10.5,9.8c0,5.4-4.7,9.8-10.5,9.8
	S66.8,407.9,66.8,402.5z"/>
<path class="zhsml-st3" d="M66.8,402.5L66.8,402.5c0-5.4,4.7-9.8,10.5-9.8s10.5,4.4,10.5,9.8c0,5.4-4.7,9.8-10.5,9.8
	S66.8,407.9,66.8,402.5z"/>
<path class="zhsml-st2" d="M66.8,430.7L66.8,430.7c0-5.4,4.7-9.8,10.5-9.8s10.5,4.4,10.5,9.8c0,5.4-4.7,9.8-10.5,9.8
	S66.8,436.1,66.8,430.7z"/>
<path class="zhsml-st3" d="M66.8,430.7L66.8,430.7c0-5.4,4.7-9.8,10.5-9.8s10.5,4.4,10.5,9.8c0,5.4-4.7,9.8-10.5,9.8
	S66.8,436.1,66.8,430.7z"/>
<path class="zhsml-st2" d="M66.8,458.9L66.8,458.9c0-5.4,4.7-9.8,10.5-9.8s10.5,4.4,10.5,9.8s-4.7,9.8-10.5,9.8S66.8,464.3,66.8,458.9z"/>
<path class="zhsml-st3" d="M66.8,458.9L66.8,458.9c0-5.4,4.7-9.8,10.5-9.8s10.5,4.4,10.5,9.8s-4.7,9.8-10.5,9.8S66.8,464.3,66.8,458.9z"/>
<line class="zhsml-st4" x1="9.7" y1="346.2" x2="66.8" y2="346.2"/>
<line class="zhsml-st3" x1="9.7" y1="346.2" x2="66.8" y2="346.2"/>
<line class="zhsml-st4" x1="9.7" y1="374.3" x2="66.8" y2="374.3"/>
<line class="zhsml-st3" x1="9.7" y1="374.3" x2="66.8" y2="374.3"/>
<line class="zhsml-st4" x1="9.7" y1="402.5" x2="66.8" y2="402.5"/>
<line class="zhsml-st3" x1="9.7" y1="402.5" x2="66.8" y2="402.5"/>
<line class="zhsml-st4" x1="9.7" y1="430.7" x2="66.8" y2="430.7"/>
<line class="zhsml-st3" x1="9.7" y1="430.7" x2="66.8" y2="430.7"/>
<line class="zhsml-st4" x1="9.7" y1="458.9" x2="66.8" y2="458.9"/>
<line class="zhsml-st3" x1="9.7" y1="458.9" x2="66.8" y2="458.9"/>
<line class="zhsml-st4" x1="9.7" y1="346.2" x2="66.8" y2="374.3"/>
<line class="zhsml-st3" x1="9.7" y1="346.2" x2="66.8" y2="374.3"/>
<line class="zhsml-st4" x1="9.7" y1="374.3" x2="66.8" y2="402.5"/>
<line class="zhsml-st3" x1="9.7" y1="374.3" x2="66.8" y2="402.5"/>
<line class="zhsml-st4" x1="9.7" y1="402.5" x2="66.8" y2="430.7"/>
<line class="zhsml-st3" x1="9.7" y1="402.5" x2="66.8" y2="430.7"/>
<line class="zhsml-st4" x1="9.7" y1="430.7" x2="66.8" y2="458.9"/>
<line class="zhsml-st3" x1="9.7" y1="430.7" x2="66.8" y2="458.9"/>
<line class="zhsml-st4" x1="9.7" y1="458.9" x2="66.8" y2="430.7"/>
<line class="zhsml-st3" x1="9.7" y1="458.9" x2="66.8" y2="430.7"/>
<line class="zhsml-st4" x1="9.7" y1="430.7" x2="66.8" y2="402.5"/>
<line class="zhsml-st3" x1="9.7" y1="430.7" x2="66.8" y2="402.5"/>
<line class="zhsml-st4" x1="9.7" y1="402.5" x2="66.8" y2="374.3"/>
<line class="zhsml-st3" x1="9.7" y1="402.5" x2="66.8" y2="374.3"/>
<line class="zhsml-st4" x1="9.7" y1="374.3" x2="66.8" y2="346.2"/>
<line class="zhsml-st3" x1="9.7" y1="374.3" x2="66.8" y2="346.2"/>
<line class="zhsml-st4" x1="9.7" y1="346.2" x2="66.8" y2="402.5"/>
<line class="zhsml-st3" x1="9.7" y1="346.2" x2="66.8" y2="402.5"/>
<line class="zhsml-st4" x1="9.7" y1="374.3" x2="66.8" y2="430.7"/>
<line class="zhsml-st3" x1="9.7" y1="374.3" x2="66.8" y2="430.7"/>
<line class="zhsml-st4" x1="9.7" y1="402.5" x2="66.8" y2="458.9"/>
<line class="zhsml-st3" x1="9.7" y1="402.5" x2="66.8" y2="458.9"/>
<line class="zhsml-st4" x1="9.7" y1="458.9" x2="66.8" y2="402.5"/>
<line class="zhsml-st3" x1="9.7" y1="458.9" x2="66.8" y2="402.5"/>
<line class="zhsml-st4" x1="9.7" y1="430.7" x2="66.8" y2="374.3"/>
<line class="zhsml-st3" x1="9.7" y1="430.7" x2="66.8" y2="374.3"/>
<line class="zhsml-st4" x1="9.7" y1="402.5" x2="66.8" y2="346.2"/>
<line class="zhsml-st3" x1="9.7" y1="402.5" x2="66.8" y2="346.2"/>
<line class="zhsml-st4" x1="9.7" y1="346.2" x2="66.8" y2="430.7"/>
<line class="zhsml-st3" x1="9.7" y1="346.2" x2="66.8" y2="430.7"/>
<line class="zhsml-st4" x1="9.7" y1="374.3" x2="66.8" y2="458.9"/>
<line class="zhsml-st3" x1="9.7" y1="374.3" x2="66.8" y2="458.9"/>
<line class="zhsml-st4" x1="9.7" y1="458.9" x2="66.8" y2="374.3"/>
<line class="zhsml-st3" x1="9.7" y1="458.9" x2="66.8" y2="374.3"/>
<line class="zhsml-st4" x1="9.7" y1="430.7" x2="66.8" y2="346.2"/>
<line class="zhsml-st3" x1="9.7" y1="430.7" x2="66.8" y2="346.2"/>
<line class="zhsml-st4" x1="9.7" y1="458.9" x2="66.8" y2="346.2"/>
<line class="zhsml-st3" x1="9.7" y1="458.9" x2="66.8" y2="346.2"/>
<line class="zhsml-st4" x1="9.7" y1="346.2" x2="66.8" y2="458.9"/>
<line class="zhsml-st3" x1="9.7" y1="346.2" x2="66.8" y2="458.9"/>
<path class="zhsml-st2" d="M-90.9,348.2L-90.9,348.2c0-5.4,4.7-9.8,10.5-9.8s10.5,4.4,10.5,9.8c0,5.4-4.7,9.8-10.5,9.8
	S-90.9,353.6-90.9,348.2z"/>
<path class="zhsml-st5" d="M-90.9,348.2L-90.9,348.2c0-5.4,4.7-9.8,10.5-9.8s10.5,4.4,10.5,9.8c0,5.4-4.7,9.8-10.5,9.8
	S-90.9,353.6-90.9,348.2z"/>
<path class="zhsml-st2" d="M-90.2,376.4L-90.2,376.4c0-5.4,4.7-9.8,10.5-9.8c5.8,0,10.5,4.4,10.5,9.8s-4.7,9.8-10.5,9.8
	S-90.2,381.8-90.2,376.4z"/>
<path class="zhsml-st5" d="M-90.2,376.4L-90.2,376.4c0-5.4,4.7-9.8,10.5-9.8c5.8,0,10.5,4.4,10.5,9.8s-4.7,9.8-10.5,9.8
	S-90.2,381.8-90.2,376.4z"/>
<path class="zhsml-st2" d="M-90.2,404.6L-90.2,404.6c0-5.4,4.7-9.8,10.5-9.8c5.8,0,10.5,4.4,10.5,9.8c0,5.4-4.7,9.8-10.5,9.8
	S-90.2,410-90.2,404.6z"/>
<path class="zhsml-st5" d="M-90.2,404.6L-90.2,404.6c0-5.4,4.7-9.8,10.5-9.8c5.8,0,10.5,4.4,10.5,9.8c0,5.4-4.7,9.8-10.5,9.8
	S-90.2,410-90.2,404.6z"/>
<path class="zhsml-st2" d="M-90.2,432.7L-90.2,432.7c0-5.4,4.7-9.8,10.5-9.8c5.8,0,10.5,4.4,10.5,9.8c0,5.4-4.7,9.8-10.5,9.8
	S-90.2,438.1-90.2,432.7z"/>
<path class="zhsml-st5" d="M-90.2,432.7L-90.2,432.7c0-5.4,4.7-9.8,10.5-9.8c5.8,0,10.5,4.4,10.5,9.8c0,5.4-4.7,9.8-10.5,9.8
	S-90.2,438.1-90.2,432.7z"/>
<path class="zhsml-st2" d="M-90.2,460.9L-90.2,460.9c0-5.4,4.7-9.8,10.5-9.8c5.8,0,10.5,4.4,10.5,9.8s-4.7,9.8-10.5,9.8
	S-90.2,466.3-90.2,460.9z"/>
<path class="zhsml-st5" d="M-90.2,460.9L-90.2,460.9c0-5.4,4.7-9.8,10.5-9.8c5.8,0,10.5,4.4,10.5,9.8s-4.7,9.8-10.5,9.8
	S-90.2,466.3-90.2,460.9z"/>
<line class="zhsml-st4" x1="-69.9" y1="348.2" x2="-12.7" y2="348.2"/>
<line class="zhsml-st3" x1="-69.9" y1="348.2" x2="-12.7" y2="348.2"/>
<line class="zhsml-st4" x1="-69.2" y1="376.4" x2="-12" y2="376.4"/>
<line class="zhsml-st3" x1="-69.2" y1="376.4" x2="-12" y2="376.4"/>
<line class="zhsml-st4" x1="-69.2" y1="404.6" x2="-12" y2="404.6"/>
<line class="zhsml-st3" x1="-69.2" y1="404.6" x2="-12" y2="404.6"/>
<line class="zhsml-st4" x1="-69.2" y1="432.7" x2="-12" y2="432.7"/>
<line class="zhsml-st3" x1="-69.2" y1="432.7" x2="-12" y2="432.7"/>
<line class="zhsml-st4" x1="-69.2" y1="460.9" x2="-12" y2="460.9"/>
<line class="zhsml-st3" x1="-69.2" y1="460.9" x2="-12" y2="460.9"/>
<line class="zhsml-st4" x1="-69.9" y1="348.2" x2="-12.7" y2="376.4"/>
<line class="zhsml-st3" x1="-69.9" y1="348.2" x2="-12.7" y2="376.4"/>
<line class="zhsml-st4" x1="-69.2" y1="376.4" x2="-12" y2="404.6"/>
<line class="zhsml-st3" x1="-69.2" y1="376.4" x2="-12" y2="404.6"/>
<line class="zhsml-st4" x1="-69.2" y1="404.6" x2="-12" y2="432.7"/>
<line class="zhsml-st3" x1="-69.2" y1="404.6" x2="-12" y2="432.7"/>
<line class="zhsml-st4" x1="-69.2" y1="432.7" x2="-12" y2="460.9"/>
<line class="zhsml-st3" x1="-69.2" y1="432.7" x2="-12" y2="460.9"/>
<line class="zhsml-st4" x1="-69.2" y1="460.9" x2="-12" y2="432.7"/>
<line class="zhsml-st3" x1="-69.2" y1="460.9" x2="-12" y2="432.7"/>
<line class="zhsml-st4" x1="-69.2" y1="432.7" x2="-12" y2="404.6"/>
<line class="zhsml-st3" x1="-69.2" y1="432.7" x2="-12" y2="404.6"/>
<line class="zhsml-st4" x1="-69.2" y1="404.6" x2="-12" y2="376.4"/>
<line class="zhsml-st3" x1="-69.2" y1="404.6" x2="-12" y2="376.4"/>
<line class="zhsml-st4" x1="-69.2" y1="376.4" x2="-12" y2="348.2"/>
<line class="zhsml-st3" x1="-69.2" y1="376.4" x2="-12" y2="348.2"/>
<line class="zhsml-st4" x1="-69.9" y1="348.2" x2="-12.7" y2="404.6"/>
<line class="zhsml-st3" x1="-69.9" y1="348.2" x2="-12.7" y2="404.6"/>
<line class="zhsml-st4" x1="-69.2" y1="376.4" x2="-12" y2="432.7"/>
<line class="zhsml-st3" x1="-69.2" y1="376.4" x2="-12" y2="432.7"/>
<line class="zhsml-st4" x1="-69.2" y1="404.6" x2="-12" y2="460.9"/>
<line class="zhsml-st3" x1="-69.2" y1="404.6" x2="-12" y2="460.9"/>
<line class="zhsml-st4" x1="-69.2" y1="460.9" x2="-12" y2="404.6"/>
<line class="zhsml-st3" x1="-69.2" y1="460.9" x2="-12" y2="404.6"/>
<line class="zhsml-st4" x1="-69.2" y1="432.7" x2="-12" y2="376.4"/>
<line class="zhsml-st3" x1="-69.2" y1="432.7" x2="-12" y2="376.4"/>
<line class="zhsml-st4" x1="-69.2" y1="404.6" x2="-12" y2="348.2"/>
<line class="zhsml-st3" x1="-69.2" y1="404.6" x2="-12" y2="348.2"/>
<line class="zhsml-st4" x1="-69.9" y1="348.2" x2="-12.7" y2="432.7"/>
<line class="zhsml-st3" x1="-69.9" y1="348.2" x2="-12.7" y2="432.7"/>
<line class="zhsml-st4" x1="-69.2" y1="376.4" x2="-12" y2="460.9"/>
<line class="zhsml-st3" x1="-69.2" y1="376.4" x2="-12" y2="460.9"/>
<line class="zhsml-st4" x1="-69.2" y1="460.9" x2="-12" y2="376.4"/>
<line class="zhsml-st3" x1="-69.2" y1="460.9" x2="-12" y2="376.4"/>
<line class="zhsml-st4" x1="-69.2" y1="432.7" x2="-12" y2="348.2"/>
<line class="zhsml-st3" x1="-69.2" y1="432.7" x2="-12" y2="348.2"/>
<line class="zhsml-st4" x1="-69.2" y1="460.9" x2="-12" y2="348.2"/>
<line class="zhsml-st3" x1="-69.2" y1="460.9" x2="-12" y2="348.2"/>
<line class="zhsml-st4" x1="-69.9" y1="348.2" x2="-12.7" y2="460.9"/>
<line class="zhsml-st3" x1="-69.9" y1="348.2" x2="-12.7" y2="460.9"/>
<text transform="matrix(1 0 0 1 104.1044 348.9664)" class="zhsml-st6 zhsml-st7 zhsml-st8">苹果：是/否？</text>
<line class="zhsml-st4" x1="-141" y1="404.3" x2="-113.2" y2="404.8"/>
<line class="zhsml-st9" x1="-141" y1="404.3" x2="-117.7" y2="404.7"/>
<polygon class="zhsml-st10" points="-117.8,406 -114.3,404.8 -117.7,403.5 "/>
<polygon class="zhsml-st11" points="-117.8,406 -114.3,404.8 -117.7,403.5 "/>
<text transform="matrix(1 0 0 1 104.1044 377.1383)" class="zhsml-st6 zhsml-st7 zhsml-st8">熊：是/否？</text>
<text transform="matrix(1 0 0 1 104.1044 405.3248)" class="zhsml-st6 zhsml-st7 zhsml-st8">糖果：是/否？</text>
<text transform="matrix(1 0 0 1 104.1044 433.506)" class="zhsml-st6 zhsml-st7 zhsml-st8">狗：是/否？</text>
<text transform="matrix(1 0 0 1 104.1044 461.6833)" class="zhsml-st6 zhsml-st7 zhsml-st8">蛋：是/否？</text>
<path class="zhsml-st0" d="M41.2,486L41.2,486c0-3.2,2.6-5.8,5.8-5.8h67.4c1.5,0,3,0.6,4.1,1.7s1.7,2.6,1.7,4.1v23.2
	c0,3.2-2.6,5.8-5.8,5.8H47c-3.2,0-5.8-2.6-5.8-5.8V486z"/>
<text transform="matrix(1 0 0 1 57.9771 501.9569)" class="zhsml-st12 zhsml-st8">Softmax</text>
<text transform="matrix(1 0 0 1 -91.0001 297.6697)" class="zhsml-st7 zhsml-st8">隐藏</text>
<text transform="matrix(1 0 0 1 -12.7999 318.406)" class="zhsml-st7 zhsml-st8">隐藏</text>
<text transform="matrix(1 0 0 1 59.1998 319.6954)" class="zhsml-st7 zhsml-st8">分对数</text>
<path class="zhsml-st2" d="M-90.2,489.1L-90.2,489.1c0-5.4,4.7-9.8,10.5-9.8c5.8,0,10.5,4.4,10.5,9.8c0,5.4-4.7,9.8-10.5,9.8
	S-90.2,494.5-90.2,489.1z"/>
<path class="zhsml-st5" d="M-90.2,489.1L-90.2,489.1c0-5.4,4.7-9.8,10.5-9.8c5.8,0,10.5,4.4,10.5,9.8c0,5.4-4.7,9.8-10.5,9.8
	S-90.2,494.5-90.2,489.1z"/>
<path class="zhsml-st2" d="M-90.2,319.9L-90.2,319.9c0-5.4,4.7-9.8,10.5-9.8c5.8,0,10.5,4.4,10.5,9.8s-4.7,9.8-10.5,9.8
	S-90.2,325.3-90.2,319.9z"/>
<path class="zhsml-st5" d="M-90.2,319.9L-90.2,319.9c0-5.4,4.7-9.8,10.5-9.8c5.8,0,10.5,4.4,10.5,9.8s-4.7,9.8-10.5,9.8
	S-90.2,325.3-90.2,319.9z"/>
<line class="zhsml-st4" x1="-69.2" y1="321.3" x2="-12.9" y2="347.6"/>
<line class="zhsml-st3" x1="-69.2" y1="321.3" x2="-12.9" y2="347.6"/>
<line class="zhsml-st4" x1="-69.2" y1="321" x2="-11.4" y2="377.7"/>
<line class="zhsml-st3" x1="-69.2" y1="321" x2="-11.4" y2="377.7"/>
<line class="zhsml-st4" x1="-69.2" y1="321.6" x2="-11.4" y2="404.3"/>
<line class="zhsml-st3" x1="-69.2" y1="321.6" x2="-11.4" y2="404.3"/>
<line class="zhsml-st4" x1="-69.2" y1="320.4" x2="-12.9" y2="432.8"/>
<line class="zhsml-st3" x1="-69.2" y1="320.4" x2="-12.9" y2="432.8"/>
<line class="zhsml-st4" x1="-69.2" y1="322.6" x2="-11.4" y2="461.6"/>
<line class="zhsml-st3" x1="-69.2" y1="322.6" x2="-11.4" y2="461.6"/>
<line class="zhsml-st4" x1="-71.9" y1="482.6" x2="-12.5" y2="346.5"/>
<line class="zhsml-st3" x1="-71.9" y1="482.6" x2="-12.5" y2="346.5"/>
<line class="zhsml-st4" x1="-71.9" y1="482.6" x2="-11" y2="374.7"/>
<line class="zhsml-st3" x1="-71.9" y1="482.6" x2="-11" y2="374.7"/>
<line class="zhsml-st4" x1="-71.9" y1="482.6" x2="-11" y2="402.9"/>
<line class="zhsml-st3" x1="-71.9" y1="482.6" x2="-11" y2="402.9"/>
<line class="zhsml-st4" x1="-71.9" y1="482.6" x2="-11" y2="431.1"/>
<line class="zhsml-st3" x1="-71.9" y1="482.6" x2="-11" y2="431.1"/>
<line class="zhsml-st4" x1="-72.2" y1="483.3" x2="-11.4" y2="458.9"/>
<line class="zhsml-st3" x1="-72.2" y1="483.3" x2="-11.4" y2="458.9"/>
</svg>
